<?xml version="1.0" encoding="UTF-8"?><svg id="svg2" width="300" height="200" version="1.1" viewBox="0 0 600 400" xmlns="http://www.w3.org/2000/svg" xmlns:cc="http://creativecommons.org/ns#" xmlns:dc="http://purl.org/dc/elements/1.1/" xmlns:rdf="http://www.w3.org/1999/02/22-rdf-syntax-ns#"><metadata id="metadata8"><rdf:RDF><cc:Work rdf:about=""><dc:format>image/svg+xml</dc:format><dc:type rdf:resource="http://purl.org/dc/dcmitype/StillImage"/></cc:Work></rdf:RDF></metadata><path id="path28" d="m0 0h600v400h-600z" style="fill:#fdfdfd;stroke-width:1.8"/><path id="path1" d="m600 400h-600l300-220z" style="fill-rule:evenodd;fill:#009700;stroke-width:113.4"/><path id="path2480" d="m276.9 72.0c-0.3 0.0-0.6 0.5-1.0 0.4-0.5-0.1-1.1 1.0-2.2 1.1-1.0 0.1-0.9 1.3-1.5 1.8-0.5 0.5-1.4-0.3-2.1 0-0.6 0.3 0.2 2.8 0.3 3.6 0.1 0.8-0.9 2.7-1.2 3.1-0.3 0.3-0.5 0.7-0.3 1.2 0.2 0.5-0.0 0.1 0 0.6 0.1 1.8-1.0 2.5-1.5 2.9-0.9 0.7-0.5 3.0-0.5 3.7 0 0.7 1.8 2.8 1.8 2.8v3.5c0 1.9 0.3 3.0 1.0 4.5 0.6 1.5 1.7 1.2 1.7 1.2s-0.2 0.1-0.2 0.8c0 0.6 2.0 3.9 2.0 4.0-0.0-0.0-0.3-0.1-1.5-0.2-1.6-0.1-5.2 2.3-6.1 2.5-0.8 0.2-1.9 1.0-3.0 1.7-1.0 0.7-1.5 2.2-1.5 3.2 0 0.6 1.0 1.2 1.8 1.5-0.8 1.3-1.3 2.9-1.3 4.6 0 3.0 1.5 5.6 3.8 7.1l-6.3 6.5v1.7s-12.1 11.7-12.8 12.3c-0.6 0.5 1.5 2.2 1.5 2.2v2.1l5.0 0.4s0.4 0.2 0.9 0.6c0.4 0.4-0.4 0.5 0 1.1 0.4 0.5 1.7 0.7 1.7 0.7v40.5s-3.7 2.9-4.3 3.6-0.3 2.2-0.3 2.2l-5.5 4.8s0.3 1.7 0 2.7c-0.3 1.0-1.1 1.1-1.1 1.1v9.8l112-0.1v-1.0l-0.9-1.0v-12.3l-1.6 0.1 0.1-4.5-1.2 0.0-0.0-0.7s-1.9-0.1-2.2-0.9c-0.2-0.8-0.9-1.4-0.9-1.4h-1.0s0.4-0.8 0.3-1.5c-0.1-0.7-0.6-0.8-0.6-0.8s-0.1-0.9-1.2-1.0c-1.1-0.1-1.3-1.6-1.3-1.6v-39.2l8.1-6.3-0.1-2.6 1.9-1.3 0.0-1.0-9.4-0.8v-5.5l-3.5 0.2v-4.9l-5.4-0.5v-1.4s0.4-0.5 0.4-2.3c2e-4 -1.7-1.0-4.9-2.0-5.0-1.0-0.1-2.4-1.9-2.4-1.9s0.5-6e-4 4.5-1.5c3.9-1.5 7.0-6.1 7.0-10.5 0-6.3-5.0-10.6-14.3-10.6-2.6 0-3.3-0.1-6.4-1.4-3.1-1.2-4.3-1.0-5.0-1.0-6.0 0.1-9.6 0.3-14.1-0.5-1.2-0.3-4.1-0.5-4.1-0.5s-0.3-0.6-0.6-1.8c-0.3-1.1-1.3-1.5-1.3-1.5s-0.5-0.8-1.5-1.6-1.9 0.2-1.9-0.4c2e-4 -0.7-1.2-2.9-1.4-3.8-0.1-0.9-2.5-4.2-3.4-5.0-0.9-0.8-3.8-3.9-4.5-4.6-0.6-0.7-1.6 0.4-1.5-0.4 0.1-0.9-0.8-1.0-1.7-1.5-0.9-0.4-3.6-0.1-3.6-0.1s-0.2-0.8-0.7-1.6c-0.1-0.2-0.2-0.3-0.4-0.3zm56.4 31.3c2.4-0.0 7.9 0.7 7.7 7.1-0.3 7.8-9.9 8.6-9.9 8.6-0.1 0.1-0.9-1.6-1.6-2.9-0.6-1.2-0.4-5.8-0.4-5.8 1.3 0.6 1.7-1.7 1.1-2.5-0.4-0.4-0.1-2.5 0.2-3.0 0.3-0.4 1.2-1.0 1.8-1.2 0.1-0.0 0.5-0.0 1.0-0.1zm-59.2 10.0c0.5-0.0 1.1 0.0 1.4 0.6 0.4 0.7 1.0 1.9 1.7 3.0 0.6 1.0 1.8 0 2.5 0.2 0.6 0.2 0.9 0.0 1.7 0.2 1.1 0.3 1.0 5.0 0.7 6.4-0.2 1.2-0.3 2.7-0.3 3.2l-5.4-0.5c0.9-1.3 1.5-3.0 1.5-4.9 0-3.6-2.3-6.7-5.5-7.9l0.0-0.0s0.7-0.3 1.4-0.3zm41.3 0.8s-0.2 2.9 0.3 5.5c0.5 2.5 0.6 4.9 0.2 5.9-0.4 0.9-1.6 3.1-3.0 3.3-1.3 0.2-2.2-0.4-3.5 0-0.6 0.2-0.9 0.5-1.1 0.7l-21.4-2.0c0.0-0.9 0.3-3.7 1.1-5.2 0.9-1.8 1.7-4.5 2.2-4.2s1.2-1.4 1.2-1.4 0.6-0.0 1.2 0.7c0.5 0.8 1.9-0.6 6.2 0.1 4.2 0.8 8.4-1.3 8.4-1.3 0 1e-4 1.3 0.2 3.9-0.9s4.0-1.1 4.0-1.1zm9.0 8.4s1.1 0.7 1.7 1.3c0.6 0.6-0.7 2.3-0.7 2.3s-0.1 0.2-0.6-1.3c-0.4-1.6-0.3-2.3-0.3-2.3zm4.0 3.0c0.1-0.0 0.2 0 0.3 0.1 0.6 0.5 2.8 2.1 3.2 2.9 0.3 0.6 0.2 2.8 0.2 3.3l-6.8-0.6c-0.0-0.8 0.0-2.7 1.9-4.7 2e-4 0 0.5-0.9 1.1-0.9zm-4.5 4.0-0.7 1.4-1.0-0.1c-0.0-0.1 0.1-0.3 0.1-0.3z" style="fill:#000000"/></svg>