<svg version="1.0" xmlns="http://www.w3.org/2000/svg" width="300" height="200.6" xml:space="preserve"><path fill="#FFF" d="M0 0h392.5v262.5H0z"/><path fill="#273A7D" d="m134.1 33.1.2 128.8s7.9 32.0 21.7 45.3c13.7 13.3 34.3 30.9 40.7 30.3 6.3-.567 35.5-23.8 37.9-26.3s23.3-26.9 25.0-43.9c1.6-17.0 1.6-133.3 1.6-133.3"/><path fill="#FFF" d="m136.5 116.7 9.5-6.4 9.7 6.6.1 9.8-9.7-5.6-9.9 6.6zM136.5 96.3l9.5-6.4 9.7 6.6.1 9.8-9.7-5.6-9.9 6.6zM136.5 75.9l9.5-6.4 9.7 6.6.1 9.8-9.7-5.6-9.9 6.6zM238.9 116.7l9.5-6.4 9.7 6.6.1 9.8-9.7-5.6-9.9 6.6zM238.9 96.3l9.5-6.4 9.7 6.6.1 9.8-9.7-5.6-9.9 6.6zM238.9 75.9l9.5-6.4 9.7 6.6.1 9.8-9.7-5.6-9.9 6.6zM180.7 116.7l-.183 10.4 9.9-5.8 7.1 4.5 7.7-4.5 9.3 6.0v-10.4l-9.5-6.8-7.1 5.4-7.5-5.4zM180.7 96.3l-.183 10.4 9.9-5.8 7.1 4.5 7.7-4.5 9.3 6.0V96.5l-9.5-6.8-7.1 5.4-7.5-5.4zM180.7 75.9l-.183 10.4 9.9-5.8 7.1 4.5 7.7-4.5 9.3 6.0V76.1l-9.5-6.8-7.1 5.4-7.5-5.4zM158.3 205.6s19.8 21.2 19.8 17.0V67.2H158.6l-.276 138.4zM157.8 58.9h20.3v5.8h-20.3zM157.9 35.7h20.3v21.2h-20.3zM217.2 66.9l.274 155.4s18.7-13.3 18.9-17.0 0-138.4 0-138.4h-19.2zM216.4 58.9h20.5v5.9h-20.5zM217.2 36.0v21.2h19.8V36.0z"/></svg>