<?xml version="1.0" encoding="UTF-8"?><svg id="svg2" width="300" height="1e3" version="1.0" xmlns="http://www.w3.org/2000/svg" xmlns:cc="http://creativecommons.org/ns#" xmlns:dc="http://purl.org/dc/elements/1.1/" xmlns:rdf="http://www.w3.org/1999/02/22-rdf-syntax-ns#" xmlns:xlink="http://www.w3.org/1999/xlink"><metadata id="metadata7"><rdf:RDF><cc:Work rdf:about=""><dc:format>image/svg+xml</dc:format><dc:type rdf:resource="http://purl.org/dc/dcmitype/StillImage"/><dc:date>2006-06-14</dc:date><dc:creator><cc:Agent><dc:title>Valadrem (http://valadrem.blogspot.com)</dc:title></cc:Agent></dc:creator><dc:description>Escudo de la Ciudad de Madrid Madrid Coat</dc:description><dc:source>http://commons.wikimedia.org/wiki/Image:Escudo_de_Madrid.svg</dc:source><dc:language>es</dc:language><cc:license rdf:resource="http://web.resource.org/cc/PublicDomain"/><dc:relation>http://commons.wikimedia.org/wiki/Image:Escudo_de_Madrid.svg</dc:relation></cc:Work><cc:License rdf:about="http://web.resource.org/cc/PublicDomain"><cc:permits rdf:resource="http://web.resource.org/cc/Reproduction"/><cc:permits rdf:resource="http://web.resource.org/cc/Distribution"/><cc:permits rdf:resource="http://web.resource.org/cc/DerivativeWorks"/></cc:License></rdf:RDF></metadata><g id="layer1" transform="translate(234.3 529.6)"><rect id="rect2003" x="-234.3" y="-529.6" width="300" height="1e3" style="fill-rule:evenodd;fill:#9b0025;stroke-width:2"/><g id="g11983" transform="matrix(1.3 0 0 1.3 325.6 -391.2)"><path id="path4448" d="m40.6 193.6v153.8c0 39.7-3.5 85.4 97.0 85.4 99.7 0 97.2-47.7 97.2-86.9v-152.4z" style="fill-rule:evenodd;fill:#ffffff;stroke-width:35;stroke:#204080"/><path id="path11106" d="m195.4 378.0c-0.0-1.7 0.5-3.7-0.1-5.3-1.2-2.7-3.3-5.2-5.0-7.9 3.2-2.1 6.7-5.4 6.0-9.7-0.1-3.7-2.7-6.5-4.2-9.7-3.1-5.5-7.2-10.7-9.3-16.5-1.0-2.9 0.7-6.6-0.0-9.6-1.0-3.9-2.7-8.5-5.0-11.4-0.7-0.9 2.3-3.7 2.6-5.0 1.7-2.9 2.2-7.4-0.6-10.1-1.6-1.3-1.8-3.4-4.3-1.3-1.0 1.4-1.8 1.5-2.3-0.2-0.4-1.4-1.3-2.0-2.7-1.8-1.4-0.5-2.1 0.2-2.3 1.6-2.3-1.7-4.6-4.0-8.5-5.8-4.3-0.5-6.3 3.9-5.2 8.2-0.1 3.0 1.9 5.3 3.2 7.8 0.3 2.5-0.1 5.4 0.3 8.0 0.4 2.3 1.6 3.9 3.3 6.6 1.7 3.3-4.8 1.9-7.6-2.9-0.4-1.9-0.5-4.1-1.2-5.9-1.0-0.7-2.0-1.8-3.1-2.3-1.8-0.6-5.3 1.3-5.4 2.5-0.1 7.0 1.7 14.1 1.5 21.2 2.0 3.5 4.2 7.6 8.2 10.5 0.9 0.6 3.0 9e-3 3.1 1.4 1.0 3.3 2.0 6.6 3.1 9.9 1.1 4.9 2.7 6.1 4.5 8.8 1.2 1.1 2.5 2.2-0.0 3.2-2.3 3.2 7.6 8.7 8.0 10.1 0.3 1.1-2.5 3.8-3.5 5.1 8.8 0.4 18.1-0.2 26.9 0.2z" style="fill-rule:evenodd;fill:#000000"/><path id="path3972" d="m137.9 110.9 3.0 0.5c-0.4 1.2-0.6 2.6-0.6 4.0 0 6.4 5.5 11.6 12.3 11.6 5.4 0 14.1-3.3 15.6-8.0 0.1 0.1 1.1-4.2 1.6-4.1 0.4 0.0-1.6 4.2-1.4 4.1l0.2 8.3c-3.1 2.8-11.4 4.6-16.2 4.6-6.2 0-11.7-3.0-14.8-7.6-3.1 4.5-8.6 7.6-14.8 7.6-4.7 0-11.0-1.7-14.2-4.6l0.2-8.3c0.1 0.0-1.8-4.1-1.4-4.1 0.5-0.0 1.5 4.2 1.6 4.1 1.6 4.6 8.2 8.0 13.7 8.0 6.7 0 12.2-5.2 12.2-11.6 0-1.4-0.0-2.8-0.5-4.0l3.2-0.5" style="fill:#ffcc00;stroke-linejoin:round;stroke-width:.387757;stroke:#000000"/><path id="path3994" d="m21.3 144.6c-2.9 0-5.1 0.2-5.1-3.3 0.0-3.6 2.5-3.3 5.1-3.3h232.8c2.8 0 5.1-0.2 5.1 3.3-0.0 3.5-2.0 3.3-5.1 3.3z" style="fill:#ffcc00;stroke-linejoin:round;stroke-width:.387757;stroke:#000000"/><path id="path3964" d="m137.7 82.3c2.6 2.3 4.6 5.9 4.8 9.5 0 0 0.4-0.6 2.2-1.3 1.8-0.6 3.1-0.4 3.1-0.4s-0.9 2.6-1.3 3.5c-0.4 0.9-0.9 3.8-2.0 6.3-1.0 2.5-2.6 4.4-2.6 4.4-0.9-1.1-2.4-1.8-4.1-1.8-1.6 0-3.1 0.7-4.1 1.8 0 0-1.5-1.8-2.6-4.4-1.1-2.4-1.6-5.3-2.0-6.3-0.4-0.9-1.3-3.5-1.3-3.5s1.3-0.2 3.2 0.4c1.8 0.6 2.2 1.3 2.2 1.3 0.2-3.6 2.1-7.1 4.7-9.5zm-4.0 28.7c-0.8-0.8-1.3-2.0-1.3-3.3 0-1.2 0.4-2.4 1.2-3.3 0 0-2.2-1.6-4.7-2.8-1.9-0.8-5.4-1.4-6.5-1.6-1.0-0.2-3.1-0.6-3.1-0.6s0.0 0.5 0.4 1.6c0.4 1.4 0.9 2.3 0.9 2.3-3.6 0.2-7.1 2.0-9.5 4.4 2.4 2.3 5.8 4.1 9.5 4.3 0 0-0.4 0.8-0.9 2.3-0.4 1.1-0.4 1.6-0.4 1.6s2.1-0.3 3.1-0.5c1.0-0.2 4.6-0.8 6.5-1.6 2.5-1.1 4.7-2.7 4.7-2.7zm8.1 0c0.8-0.8 1.3-2.0 1.3-3.3 0-1.2-0.4-2.4-1.2-3.3 0 0 2.2-1.6 4.7-2.8 1.9-0.8 5.4-1.4 6.5-1.6 1.0-0.2 3.1-0.6 3.1-0.6s-0.0 0.5-0.4 1.6c-0.4 1.4-0.9 2.3-0.9 2.3 3.6 0.2 7.1 2.0 9.5 4.4-2.3 2.3-5.8 4.1-9.5 4.3 0 0 0.4 0.8 0.9 2.3 0.4 1.1 0.4 1.6 0.4 1.6s-2.1-0.3-3.1-0.5c-1.0-0.2-4.6-0.8-6.5-1.6-2.5-1.1-4.7-2.7-4.7-2.7z" style="fill:#ffcc00;stroke-linejoin:round;stroke-width:.387757;stroke:#000000"/><path id="path11928" d="m132.3 107.7c0-2.8 2.4-5.1 5.4-5.1 2.9 0 5.4 2.2 5.4 5.1 0 2.8-2.4 5.1-5.4 5.1-2.9 0-5.4-2.3-5.4-5.1z" style="fill:#ffffff;stroke-linejoin:round;stroke-width:.387757;stroke:#000000"/><use id="use4002" transform="translate(60)" width="300" height="100" xlink:href="#path3964"/><use id="use4004" transform="translate(-60)" width="300" height="100" xlink:href="#path3964"/><use id="use4006" transform="translate(-60)" width="300" height="100" xlink:href="#path3972"/><use id="use4008" transform="translate(-60)" width="300" height="100" xlink:href="#path11928"/><use id="use4010" transform="translate(-28.9,10.1)" width="300" height="100" xlink:href="#path11928"/><use id="use4017" transform="translate(60)" width="300" height="100" xlink:href="#path3972"/><use id="use4015" transform="translate(30.9,10)" width="300" height="100" xlink:href="#path11928"/><use id="use4019" transform="translate(60)" width="300" height="100" xlink:href="#path11928"/><g id="g4041"><path id="path3952" d="m253.1 110.4c-0.3-0.9-0.4-2.0-0.1-3.2 0.5-2.5 2.4-4.3 4.3-4.0 0.2 0.0 0.5 0.1 0.7 0.2 0 0-0.9-5.8 0.5-9.1 1.5-3.3 6.2-6.3 6.2-6.3-2.4-3.1-6.9-3.7-10.3-1.2-1.9 1.4-3.2 3.7-3.2 5.9l-2.0-1.7s-2.3 2.5-1.2 6.6c1.1 4.0 5.8 7.5 5.8 7.5s-2.1-1.4-4.1-1.9c-1.9-0.5-5.6 0.0-7.4 0.4-1.8 0.3-3.9 0.4-3.9 0.4s0.2 0.3 0.8 1.2c0.7 1.0 1.2 1.6 1.2 1.6-2.7 1.5-5.3 4.1-6.9 6.7 2.4 1.1 5.5 1.5 8.6 0.6 0 0-0.3 1.3-0.5 2.7-0.1 1.1-0.1 1.6-0.1 1.6s1.8-1.0 2.8-1.5c0.9-0.5 4.0-2.2 5.6-3.6 1.1-1.0 2.4-2.2 3.1-3.0z" style="fill:#ffcc00;stroke-linejoin:round;stroke-width:.387757;stroke:#000000"/><path id="path4025" d="m257.9 110.9 3.0 0.5c-0.4 1.2 1.2 7.3-3.1 13.1-4.3 5.6-8.6 7.6-14.8 7.6-4.7 0-11.0-1.7-14.2-4.6l0.2-8.3c0.1 0.0-1.8-4.1-1.4-4.1 0.5-0.0 1.5 4.2 1.6 4.1 1.6 4.6 8.2 8.0 13.7 8.0 6.7 0 12.2-5.2 12.2-11.6 0-1.4-0.0-2.8-0.5-4.0l3.2-0.5" style="fill:#ffcc00;stroke-linejoin:round;stroke-width:.387757;stroke:#000000"/><use id="use4027" transform="translate(91.0,10)" width="300" height="100" xlink:href="#path11928"/><use id="use4021" transform="translate(60)" width="300" height="100" xlink:href="#use4019"/></g><use id="use4047" transform="matrix(-1,0,0,1,278.3,0)" width="300" height="100" xlink:href="#g4041"/><path id="path4049" d="m21.3 170.6c-2.9 0-5.1 0.2-5.1-3.3 0.0-3.6 2.5-3.3 5.1-3.3h232.8c2.8 0 5.1-0.2 5.1 3.3-0.0 3.5-2.0 3.3-5.1 3.3z" style="fill:#ffcc00;stroke-linejoin:round;stroke-width:.387757;stroke:#000000"/><path id="use4924" d="m105.0 154.3c0-2.8 2.4-5.1 5.4-5.1 2.9 0 5.4 2.2 5.4 5.1 0 2.8-2.4 5.1-5.4 5.1-2.9 0-5.4-2.3-5.4-5.1z" style="fill:#204080;stroke-linejoin:round;stroke-width:.387757;stroke:#000000"/><use id="use4928" transform="translate(56.6)" width="300" height="100" xlink:href="#use4924"/><use id="use4930" transform="translate(113.3)" width="300" height="100" xlink:href="#use4924"/><use id="use4932" transform="translate(-56.6)" width="300" height="100" xlink:href="#use4924"/><path id="path4934" d="m119.9 154.3c0-2.8 8.4-5.1 18.8-5.1 10.4 0 18.8 2.2 18.8 5.1 0 2.8-8.4 5.1-18.8 5.1-10.4 0-18.8-2.3-18.8-5.1z" style="fill:#40c040;stroke-linejoin:round;stroke-width:.387757;stroke:#000000"/><path id="path4936" d="m233.1 154.3c0-2.8 5.8-5.1 13.0-5.1 7.2 0 13.1 2.2 13.1 5.1 0 2.8-5.8 5.1-13.1 5.1-7.2 0-13.0-2.3-13.0-5.1z" style="fill:#40c040;stroke-linejoin:round;stroke-width:.387757;stroke:#000000"/><use id="use4938" transform="translate(-216.9)" width="300" height="100" xlink:href="#path4936"/><path id="rect4940" d="m82.1 148.3 18.4 5.5-18.4 6.3-18.4-5.5z" style="fill-rule:evenodd;fill:#e06040;stroke-width:.388;stroke:#204080"/><use id="use5816" transform="translate(113.3)" width="300" height="100" xlink:href="#rect4940"/><path id="path1594" d="m150.0 201.9h-8.1l-4.0 7.0-4.0-7.0h-8.1l5.1-7.0-5.1-7.0h8.1l4.0-7.0 4.0 7.0h8.1l-5.1 7.0z" style="fill-rule:evenodd;fill:#ffffff"/><use id="use7564" transform="translate(-98)" width="300" height="100" xlink:href="#path1594"/><use id="use7566" transform="translate(98)" width="300" height="100" xlink:href="#path1594"/><use id="use7568" transform="translate(-98,92)" width="300" height="100" xlink:href="#path1594"/><use id="use7570" transform="translate(-98,186)" width="300" height="100" xlink:href="#path1594"/><use id="use7572" transform="translate(98,92)" width="300" height="100" xlink:href="#path1594"/><use id="use7574" transform="translate(98,186)" width="300" height="100" xlink:href="#path1594"/><path id="rect9354" d="m131.8 282.3h15.2v86.0l8 12.3h-31.2l8-12.3z" style="fill-rule:evenodd;fill:#c0a040"/><path id="path7584" d="m89.3 252.2c0-17.7 22.4-32.0 50.0-32.0 27.6 0 50.1 14.3 50.1 32.0 0 17.7-22.4 32.1-50.1 32.1-27.6 0-50.0-14.3-50.0-32.1z" style="fill:#40c040"/><path id="use8459" d="m95.6 253.1c0-2.8 2.4-5.1 5.4-5.1 2.9 0 5.4 2.2 5.4 5.1 0 2.8-2.4 5.1-5.4 5.1-2.9 0-5.4-2.3-5.4-5.1z" style="fill:#e06040"/><use id="use9336" transform="translate(25.2,-1.1)" width="300" height="100" xlink:href="#use8459"/><use id="use9338" transform="translate(13.1,6.0)" width="300" height="100" xlink:href="#use8459"/><use id="use9340" transform="translate(19.9,19.4)" width="300" height="100" xlink:href="#use8459"/><use id="use9342" transform="translate(32.0,11.0)" width="300" height="100" xlink:href="#use8459"/><use id="use9344" transform="translate(38.5,21.7)" width="300" height="100" xlink:href="#use8459"/><use id="use9346" transform="translate(48.9,9.3)" width="300" height="100" xlink:href="#use8459"/><use id="use9348" transform="translate(60.6,1.4)" width="300" height="100" xlink:href="#use8459"/><use id="use9350" transform="translate(76.3,3.1)" width="300" height="100" xlink:href="#use8459"/><use id="use9352" transform="translate(63.7,15.7)" width="300" height="100" xlink:href="#use8459"/><path id="path10230" d="m59.2 377.5c0 16.3 11.9 38.1 78.2 38.1 66.5 0 78.2-21.9 78.2-38.1z" style="fill-rule:evenodd;fill:#40c040"/></g></g></svg>