<svg xmlns="http://www.w3.org/2000/svg" xmlns:xlink="http://www.w3.org/1999/xlink" width="300" height="200" xmlns:v="https://vecta.io/nano"><style><![CDATA[.B{fill:#FFCD00}.C{stroke:none}.D{stroke:#FFCD00}.E{stroke-linejoin:round}.F{stroke-width:5.4}]]></style><defs><clipPath id="A"><path d="M-109.4 181.5l-.224.0c-1.6 0-5.4-.842-6.9-2.1-1.5 1.1-5.4 2.1-7.0 2.1a1.2 1.2 0 0 1-.225-.023l.038 1.0c.085 1.2.3 2.5.6 3.8 1.0 3.9 3.3 7.2 6.5 9.8 3.1-2.5 5.4-5.8 6.5-9.8a19.3 19.3 0 0 0 .66-3.8 21.3 21.3 0 0 0 .039-1.0z" fill="#fff" stroke-width="300" class="D"/></clipPath><path id="B" d="M-123.9 179.2h4.8v17.1h-4.8z"/></defs><path d="M0 0H900V600H0z"/><path fill="#fff" d="M0 0H900V400H0z"/><path fill="#C8102E" d="M0 0H900V200H0z"/><g transform="matrix(.233093 0 0 .233093 344.1 97.4)" fill="#fff" class="D"><path d="M457.6 879.3l293.8 272.7-20.9-495.3c-3.0-75.0-68.3-57.8-115.7-30.7-48.0 30.7-102.7 30.7-160.6 10.4-57.8 20.3-112.6 20.3-160.6-10.4-47.3-27.0-112.6-44.3-115.7 30.7l-20.9 495.3z" stroke-width="300" class="E"/><path d="M211.6 639.4l-20.3 481.8-34.4 30.7 20.9-495.3c9.8-6.7 27.0-17.2 33.8-17.2zm41.2 34.4l-17.2 403.0-34.4 35.2 20.9-465.4c6.7 6.7 27.0 23.3 30.7 27.0zm37.5 30.7l-13.5 336.1-27.6 27.0 17.2-383.5c6.7 6.7 20.2 16.6 23.9 20.3zm40.6 17.2l-13.5 286.5-27.0 21.9 13.5-318.9c6.7 3.0 20.3 10.4 27.0 10.4zm37.5 0l-9.8 238.7-27.6 27.0 10.4-262.7c6.7 0 23.9 0 27.0-3.0z" id="C" class="B C"/><use transform="matrix(-1 0 0 1 908.2 .000001)" xlink:href="#C"/><path d="M467.6 933.6l41.2 187.7-13.5 13.5-14.1-10.4-23.3-167.3 9.8 167.3-13.5 17.2-13.5-17.2 9.8-167.3-23.3 167.3-14.1 10.4-13.5-13.5 41.2-187.7h27.0z" stroke-width="300" class="B"/><g id="D" fill="none" class="D E"><path d="M361.8 851.2l-81.8 290.4 112.6 17.2 47.9-218.4-78.7-89.2z" fill="#fff" stroke-width="300"/><g class="F"><path d="M334.7 950.3l9.8 23.9 53.2-50.8"/><path d="M371.5 890.1l11.1 104.4 33.8-44.3m-13.5 17.2l18.4 63.8m7.2-23.4l-37.4 56.8m11.6 56.6l-11.9-56.6-10.4-57.5-25.0 33.9-10.9-39.1-35.0 35.9 17.8 65.4 24.6-40.4 13.5 41.2 25.2-39.3m-86.8 70.0l22.7-31.9 14.8 49.1 20.3-34.4 13.5 41.2"/></g></g><use transform="matrix(-1 0 0 1 908.2 .000001)" xlink:href="#D"/><g class="E"><path d="M454.1 1271.5c85.5 0 167.4-6.7 215.4-20.3 20.3-3.6 20.3-14.1 20.3-27.6 20.3-6.7 9.8-30.7 24-30.7-14.1 3.7-17.2-24-34.4-20.2 0-24.0-24.0-27.0-44.3-20.3-40.6 13.5-112.6 16.6-180.9 16.6-68.3-3.0-139.7-3.0-180.9-16.6-20.3-6.7-44.3-3.6-44.3 20.3-17.2-3.7-20.3 24-34.4 20.3 14.1 0 3.6 23.9 24 30.7 0 13.5 0 24.0 20.9 27.6 47.3 13.5 129.2 20.3 214.7 20.3z" stroke-width="300"/><g class="F"><path d="M337.8 1141.6c27.6 3.6 58.4 6.7 82.4 3.6 13.5 0 23.3 23.3-3.7 27.0-23.9 3.0-61.5 0-81.8-3.7-17.2-3.0-54.7-9.8-78.7-16.6-24.0-10.4-6.7-30.7 6.7-27.6 20.9 6.7 48.0 13.5 75.0 17.2zm232.6 0c-27.7 3.6-58.4 6.7-81.8 3.6-14.1 0-24.0 23.3 3.0 27.0 24.0 3.0 61.5 0 81.8-3.7 17.2-3.0 54.7-9.8 78.7-16.6 24.0-10.4 6.7-30.7-6.7-27.6-20.9 6.7-48.0 13.5-75.0 17.2z"/><path d="M252.8 1128.1c-20.9-3.6-30.7 20.2-23.9 33.8 3.0-6.7 17.2-6.7 20.3-13.5 3.6-10.4-3.0-10.4 3.6-20.3zm81.8 62.9c0-13.5 13.5-11.8 13.5-25.4 0-6.7-3.6-17.2-10.4-17.2s-13.5 6.7-13.5 13.5c-3.0 13.5 10.4 15.5 10.4 29.1zm97.4-38.9c20.2 0 18.2 27.0 8.4 40.6 0-9.8-17.2-13.5-17.2-20.2 0-10.4 15.5-10.4 8.7-20.3zm223.2-23.9c20.9-3.6 30.7 20.2 24.0 33.8-3.0-6.7-17.2-6.7-20.3-13.5-3.6-10.4 3.0-10.4-3.6-20.3zm-81.8 62.9c0-13.5-13.5-11.8-13.5-25.4 0-6.7 3.6-17.2 10.4-17.2 6.7 0 13.5 6.7 13.5 13.5 3.0 13.5-10.4 15.5-10.4 29.1zm-97.4-38.9c-20.3 0-18.2 27.0-8.4 40.6 0-9.8 17.2-13.5 17.2-20.2.0-10.4-15.5-10.4-8.7-20.3z"/></g><path d="M259.6 1134.9c6.7 0 17.2 3.0 20.3 6.7l-20.3-6.7zm33.8 10.4c3.6 0 17.2 3.0 24.0 6.7l-24.0-6.7zm123.1 13.5c-6.7 0-20.3 0-23.9 3.0l23.9-3.0zm-37.5 0c-3.6-3.7-17.2-3.7-23.9 0h23.9zm269.5-23.9c-6.7 0-16.6 3.0-20.3 6.7zm-33.8 10.4c-3.6 0-17.2 3.0-24.0 6.7l24.0-6.7zm-123.1 13.5c6.7 0 20.3 0 24.0 3.0l-24.0-3.0zm37.5 0c3.6-3.7 17.2-3.7 24.0 0h-24.0z" stroke-width="300"/></g><path d="M253.9 1189.0c-2.2-.438-3.4-2.2-2.9-4.3.7-2.6 2.7-4.1 4.7-3.4 1.2.4 3.5 2.7 3.5 3.5.0.9-1.2 3.2-1.7 3.2-.226.0-.576.2-.778.4-.429.5-1.7.7-2.9.5zm235.6 16.8c-.852-.316-2.2-2.2-2.2-3.1.0-1.6 2.4-4.3 3.9-4.3.7-.005 2.8 1.0 3.5 1.8 1.3 1.4 1.0 3.8-.662 5.1-.862.6-3.4.9-4.6.4zm1.5 10.6c-1.8-.61-2.4-1.4-2.6-3.4-.152-2.0.0-2.4 2.2-3.6l1.5-.855 1.4.6c2.0.9 2.9 1.9 3.0 3.2.0 1.4-1.0 3.0-2.7 3.7-1.5.6-1.5.6-2.9.2zm-218.2-46.7c-1.4-.047-3.5 1.3-4.6 2.0-2.7.6-6.0 2.3-8.7.5-2.6-.818-6.1-.173-6.5 3.0.6 2.7 4.5 4.3 6.9 2.5 1.7-2.3 6.5-3.6 7.1.2-1.9 2.9-1.7 6.9-3.3 10.0-.263 1.9-1.0 3.8-2.1 5.4-1.9.1-4.0-.035-5.7 1.2-2.6.1-5.4 1.4-6.9 3.7-1.7 2.4-3.3 5-3.8 8.0.4 3.1 4.0 4.0 6.7 4.1 2.8.7 5.7 1.8 8.5 2.6 4.6 1.0 9.0 2.7 13.6 3.7 6.7 2.0 13.9 2.9 20.7 4.8.7.2 1.3.4 2.1.5 2.8.5 4.3-2.5 4.5-4.8 1.4-4.9 2.4-10.0 3.8-15.0.9-1.9 2.1-6.5-1.7-5.4-2.2 1.3-4.0 3.3-6.8 3.4-3.7.2-1.6 4.0-.134 5.6.3 2.5-.471 5.5-2.1 7.5-2.2 1.4-5.0-.24-7.3-.804-2.4.0-7.3-1.2-5.0-4.5.8-2.4.8-5.1 1.8-7.6 1.2-2.6 1.4-5.5 2.0-8.3-1.5-3.3-4.1 1.0-6.3 1.4-1.4 1.0-6.8 1.4-4.0 4.0 2.4 1.8.5 5.1.1 7.5-.158 3.3-3.5 4.0-6.3 3.3-2.6-.13-6.4-2.1-4.1-5.0.5-2.4 1.3-4.8 1.8-7.3l2.9-8.8c.465-2.6 1.4-5.1 2.6-7.5.0-2.9 2.0-5.4 2.0-8.4-.2-1.4-.851-1.9-1.7-2.0zm-15.4 31.1c.35-.06.6-.008.9.1 1.0.4 1.1 1.3 0 2.2-.482.4-1.0.8-1.2.8-2.0-.173-2.5-.471-2.6-1.2-.075-.649.1-.835 1.4-1.4.6-.318 1.1-.475 1.4-.536zm-4.4 21.5c-2.1-2-1.7-3.4 1.3-5.8 1.3-1.0 2.1-.89 3.7.5 2.3 2.1 2.4 3.5.3 5.3-1.0.9-1.4 1.1-2.6 1.1-1.2.0-1.6-.144-2.7-1.2zm13.0 3.9a3.6 3.6 0 0 1-2.6-4.6c.55-1.8.8-2.0 3.6-2.0 3.0-.03 3.6.4 3.6 3.1.0 1.5-.1 1.8-.857 2.5-.888.8-2.5 1.2-3.7.9zm382.2.3c-.974-.81-1.1-1.1-1.1-2.2-.013-1.7 1.0-3.0 3.2-4.0 2.9-1.3 4.1-1.1 5.2.7 1.4 2.5 1.3 3.6-.36 5.3-.969.9-1.1 1.0-3.3 1.0-2.1.0-2.4-.045-3.5-.948zm-364.9 4.9c-1.5-.416-2.3-1.5-2.3-3.4-.018-1.4.0-1.6 1.0-2.4.6-.508 1.6-.943 2.4-1.0 1.1-.157 1.5-.057 2.4.5 2.3 1.6 2.8 3.3 1.4 4.8-1.4 1.6-2.8 2.0-5.1 1.4zm94.0 4.2c-.347-.432-1.1-.687-1.1-1.2.1-2.3.2-4.7 1.0-7.0.4-2.2.0-4.5.8-6.7.8-3.9.8-8.0 1.7-12.0.0-2.0.2-4.0.8-6.0.6-3.0.0-6.3.9-9.3-.098-1.1 1.2-4.2 2.3-2.4 1.6 2.4 3.9 4.4 6.0 6.5 1.8 1.0.1 2.6-1.1 3.2-1.7.7-2.2 2.6-2.0 4.3-.25 1.7-.963 3.4-1.0 5.2-.377 2.6-.303 5.3-.65 8.0-.781 2.6-.482 5.4-.743 8.0.0 1.7-.778 3.2-.666 4.9-.208 1.7-.286 3.8-1.7 5.0-1.4.7-3.4.5-4.5-.611zm127.4-42.0c-2.0 1.5-3.9 3.4-5.7 5.2-2.5 1.9 2.0 3.0 2.6 4.6.6 2.5.6 5.1.8 7.7.7 2.3 1.1 4.8.9 7.3-.222 2.6-3.7 2.1-5.2 3.6-2.1.8-2.9 2.9-4.5 4.4-1.0 2.0-1.3 4.6-1.4 6.9.1 1.9-1.2 4.0 0 5.7.1.2.3.5.5.8.4.6 1.4.1 2.1.2 2.1-.12 4.4.2 6.4-.67 5.1-.898 10.4-.97 15.6-1.2 3.2.1 6.3-1.0 9.5-.938 2.5.5 3.6-2.1 3.6-4.1-1.4-2.8-.194-6.1-1.3-8.9-1.0-2.8-.611-6.1-1.0-9.1-.063-2.3-3.0-3.2-4.5-1.4-1.4 1.4-3.8 1.7-4.9 3.6-1.2 2.5 2.6 2.5 3.3 4.5.7 1.9.5 4.2.6 6.3.4 2.5-2.2 2.6-4.0 2.9-2.3.8-5.5 1.4-6.8-1.3-.819-2.0-.707-4.2-.938-6.4-.057-3.8-.977-7.5-1.2-11.3-.22-4.7-1.0-9.3-1.3-14.0-.044-1.9-.304-5.1-3.0-4.5zm-2.6 35.3l1.3.1.1 1.6.1 1.6-1.7.5a14.2 14.2 0 0 1-1.7.4 10.9 10.9 0 0 1-.805-.537c-.942-.68-.701-1.6.5-2.9.6-.73 1.0-.872 2.1-.804zm-128.5-39.8c-1.6.5-3.7 2.9-5.3 2.9-3.7.2-3.2 3.9-.537 5.2.3 1.1.0 2.5.1 3.7.5 3.3-1.6 6.1-1.2 9.5-.19 3.7-1.3 7.3-1.4 11.1-1.0 3.8-1.0 7.8-1.7 11.7-.447 3.5-3.0 2.2-5.2 1.3-.017-1.5-.116-3.0-.134-4.5.9-3.5-1.8-4.5-4.6-4.9-2.9.2-4.3-2.2-3.7-4.8 1.2-1.5 4.4-1.0 6.4-1.3 4.2.8 4.0-4.7 1.8-6.7-1.4-2.7-5.1-3.9-6.1-6.7.4-3.7-2.0-7.4-5.0-9.2-4.6-.328-8.1 3.7-9.9 7.6-1.9.5-3.8 1.1-5.7 1.8-3.0.7-7.3 6.0-3.2 8.0 2.3.6 9.4 2.2 6.3 5.4-1.7 3.0-5.1 3.0-8.1 2.2-3.1.0-6.5-1.5-6.4-5.0-.633-3.2-.529-6.6-2.0-9.6-.638-3.6-4.7-2.7-4.9.5-3.1 2.2-2.7 5.9-.536 8.7 1.3 3.1.0 6.7-1.3 9.6-.82 3.7-4.9 3.8-7.9 5.0-1.4.5-6.9-.334-4.9 2.8 3.2 1.1 7.0 2.1 10.4 1.3 3.5-.437 6.5-2.8 8.3-5.8 2.3-2.4 6.4-1.1 9.5-1.2 3.3-.008 6.7 2.3 9.9.8.9-2.4 5.2-6.4 6.5-2.2-.226 3.7 3.0 5.6 6.4 5.2 3.7-.212 2.3 2.6 2.2 4.8.2 4.0 2.8 6.1 6.1 7.7 1.1.3 2.3.2 3.4 0 3.2-1.0 6.6-2.4 7.6-6.0 1.3-2.9 1.3-6.2 2.2-9.2.7-4.8 1.7-9.6 1.8-14.6 1.1-4.4.8-9.1 1.7-13.6.5-3.3.9-6.7 1.3-10.0-.393-1.7-1.1-2.0-2.1-1.7zm-29.0 17.8c.65.0 1.0.8 1.0 2.2.0 1.5.8 2.8 1.8 3.0.7.1.7 1.0-.134 1.6-.494.3-1.3.5-2.9.5-2.4-.013-4.0-.655-5.3-2.0l-.805-.804 1.2-.805a27.5 27.5 0 0 0 2.4-2.1c1.2-1.2 2.0-1.8 2.6-1.7zm283.2-33.7c-2.4.1-4.8.5-7.1 1.0-4.4-.278-6.7 4.4-2.4 6.7 2.5 6.5 6.6-1.3 10.7-.804 6.1 1.2 6.6 7.8 7.6 12.8.3 4.9 1.7 9.7 3.2 14.4 4.1 4.5-3.0 7.4-6.1 3.8-2.6-2.8-8.2-6.3-11.3-2.4-3.8 1.6-4.0 6.8-7.2 8.3-5.1 1.5-5.8-4.8-8.5-7.5-2.5-3.5-7.3-3.8-11.2-5.0-1.8-3.7-.881-10.0-4.6-12.6-3.2 1.3-9.0 7.3-4.1 10.0 4.7 4.1-2.0 6.0-4.2 8.8-3.1 3.4-3.6 8.3-4.1 12.7-5.4 2.9-6.4-3.3-7.1-7.3-.42-4.7-4.4-3.3-7.2-1.6-4.0 1.6-6.1 5.5-8.9 8.5-.343 2.7.1 5.8.1 8.7.9 3.4 5.1 1.8 7.7 1.6 4.1-1.7 5.9 2.6 2.5 5.2-2.2 2.9-9.5 1.3-8.8 6.0 2.3.2 4.7.1 7.1 0 4.6-1.2 9.7-4.5 10.1-9.7.6-4.5 7.1-3.7 10.7-4.6 4.4-1.2 9.8-1.6 10.8 4.0 3.0 3.1 9.6 6.7 13.0 2.4 3.4-2.0 5.0-5.7 4.8-9.6-.695-3.3 5.4-3.4 6.9-1.6 2.2 3.6 9.2 2.5 12.6.5 3.5-2.6 4.3-7.3 9.5-7.3 7.6-2.2 15.5-3.6 23.0-6.4 6.0-1.3-.9-5.1-2.4-7.3-4.6-2.2-8.6 7.0-13.8 2.4-4.0-3.0-3.7-8.9-5.2-13.4-1.0-5.8-.76-12.5-4.9-17.1-2.8-3.0-6.8-3.8-10.8-3.6zm-29.2 40.6c.54-.013 1.1.2 2.1.8 1.8 1.0 3.2 2.7 3.2 4.1-.001.9-.233.9-1.6 1.6-.846.3-1.8.8-2.1.8-.776-.008-2.6-1.5-2.6-2.1-.004-.255-.25-1.2-.537-2.0-.505-1.3-.427-1.3.2-2.2.4-.59.8-.924 1.3-.938zm28.0 1.4c1.5-.104 2.5.3 3.2 1.6.7 1.4.2 2.4-1.7 3.3-.873.3-1.7.6-1.8.6s-.851-.44-1.6-.938c-1.1-.763-1.3-1.1-1.3-2.0-.013-1.3 1.4-2.5 3.3-2.6zm-38.3.4c.468-.072.8.1 1.4.6.7.6 1.0 1.1 1.2 2.5.1.9.1 2.1 0 2.6-.209.9-.229.9-2.4.9-2.7.0-3.0-.274-2.9-2.8.0-1.6.0-2.0.9-2.9.6-.696 1.2-1 1.7-1.0zm-23.5 6.1c.856.2 1.6.8 1.8 1.8.2 1.3.0 1.9-1.0 2.5-.953.4-3.1.6-3.7.2-.196-.123-.6-.442-.804-.805-.292-.52-.238-.77.1-1.0.2-.211.5-.514.5-.67s.289-.7.6-1.2c.627-.832 1.5-1.1 2.4-.938zm39.6 5.0c.764-.004 1.4.2 1.8.6.7.6.7 1.7-.134 2.4-.58.4-3.7.4-4.8 0-.484-.181-.668-.424-.67-.939-.009-.604.1-.977 1.2-1.4.8-.418 1.7-.665 2.5-.67zm-73.6 20.6c-.411-.268-1.0-.502-.407-.95.7-1.2 2.2-1.7 3.5-2.2 2.3-1.0 4.3-2.7 5.8-4.7.2-1.4 1.8-2.2 1.8-3.6.0-2.0.1-4.1-.363-6.1-.55-1.8-1.9-3.2-3.5-4.1-1.1-.865-2.8-1.1-3.2-2.6-.225-1.4 1.0-2.5 1.5-3.9.9-1.8 1.7-3.7 2.7-5.4 1.1-1.2 2.8-.068 3.4 1.1.8 1.1 1.5 2.4 1.9 3.8 1.2 1.4 2.4 3.0 2.9 4.9.6 1.3 1.6 2.5 1.5 4.1 0 1.7 1.0 3.3.9 5.1.0 2.4.0 4.9-.823 7.1-.6 1.2-1.8 2.0-2.6 3.1-1.3 1.2-2.8 2.4-4.6 3.1-1.2.3-1.9 1.8-3.5 1.4-2.2.0-4.4.3-6.6-.017.1.2-.671-.393-.536-.246zm-29.3 1.9c-1.0-1.0-1.2-1.5-1.2-2.5-.012-1.0.1-1.4 1.2-2.5 1.8-1.8 2.8-1.9 6.0-.302 3.1 1.5 4.1 1.7 4.4.6.2-1.0 2.0-2.0 3.7-2.0 1.0-.009 1.6.2 2.5.8 1.0.8 1.1.9 1.1 2.9.0 1.9-.009 2.0-1.2 3.1-1.1 1.0-1.3 1.1-2.8.9-1.8-.189-3.0-1.0-3.3-2.5-.221-1.0-.598-1.3-.88-.6-.09.2-.552.5-1.0.6-.873.2-2.3 1.1-3.4 2.1-.398.3-1.0.5-2.2.5-1.5.0-1.7-.078-2.9-1.2zm-85.0-38.1c-2.8.0-5.9 2.4-6.3 5.2.6 3.2 3.3 6.3 1.6 9.7 1.1 4.3-3.2 5.9-6.3 3.4-1.8-4.1-2.7-8.7-5.4-12.4-3.4-.977-4.9 4.5-7.3 6.4 1.2 3.2 4.7 6.1 5.0 10.1.8 3.9-1.5 8.2-4.9 10.3-2.9 2.8-6.9 1.8-10.5 2.4-4.3 2.5 3.2 3.5 5.2 3.6 4.4.4 9.1-.136 12.4-3.4 3.3-1.5 3.0-7.2 6.9-7.9 6.8-.304 13.5 1.0 20.3 1.2 3.6.8 9.2-.434 11.7 2.2.0 4.7 4.0 7.6 7.9 9.5 2.1.5 4.3-2.0 6.5-2.5 4.1-1.3 2.8-6.4 5.3-8.4 7.0-.383 14.2-.302 21.3-.402 1.3.0 1.7-1.8 2.6-2.6-.156-2.7-.255-5.4-.67-8.1-1.3-3.4.2-7.9-2.2-10.8-3.5-.97-6.5 2.2-10.1 2.5-3.9 1.7-7.3 5.4-7.5 9.9-2.3 3.8-6.1-.684-4.8-3.8-.148-1.3.3-3.0-.134-4.2-2.1-2.6-5.9-1.7-8.9-2.1-4.3.1-8.6-.77-13.0-.67-3.8-.29-7.8.3-11.5-.67-4.4-.127-3.8-4.4-4.5-7.5-.785-.582-1.7-.814-2.6-.804zm8.5 15.8c1.4.0 2.8.2 4.2.4 1.8.3 3.8-.635 5.6 0 4.1.7 8.3.5 12.6.9 1.1-.017 1.9.7 2.6 1.4v8.8c-.127 1.1.3 2.5-.67 3.3-.32.2-.679.4-1.0.5-1.1-.3-2.3-1.0-2.9-2.1-.177-1.5.0-3.0.1-4.5-.03-.398.1-1.0 0-1.3-.912-.647-1.9-1.0-3.0-1.0-3.6-.125-7.2-.393-10.8-.536-3.0-.191-6.1.2-9.1-.536-1.1-.419-2.6-.275-3.3-1.4-1.0-1.1.4-2.5 1.4-3.0 1.3-.621 2.8-.833 4.2-.805zm48.3 1.0c.681-.009.8.2 1.2 1.4l.536 2.1c.156.5-.093.6-.804.9-2.1.8-4.2.7-4.9-.268-.333-.448.0-1.8.6-2.4 1.2-1.1 2.6-1.8 3.3-1.8z" class="B C"/><g transform="matrix(4.2 0 0 4.2 -1476.4 -417.9)"><path d="M462.3 253.0c.667.0-.902-3.5-.902-3.5 1.7 1.8 8.4 2.2 8.4 2.2-4-1.7-7.9-15.0-7.5-25.7.4-10.6-1.5-14.8-3.0-16.4-2-2-8.4-3.7-12.6-4-2.3-.117-2 1.8-2 1.8-4.4-1.1-8.8-1.5-10.8-.235-1.8 1.2-2.2 7.5-.902 6.4 3.3-2.6 6.2-.235 8.2 2.6 1.7 2.5 1.6 9.7-.902 18.1-2.6 8.8-9.9 17.7-9.9 17.7 3.9 0 9.5-3.5 9.5-3.5l-1.3 5.5c4.1-2 7.5-5.0 7.5-5.0l3.9 4.1c1.3-1.7 4-4.1 4-4.1s3.3 3.5 8.4 4z" stroke-width="300"/><path d="M446.1 227.5s-2.2 16.4-6.4 21.0m9.9-21.5s-.863 16.6-3.7 21.9m6.8-21.2s0 18.1 1.0 21.2m2.8-20.3s.902 15.2 4.6 20.8" fill="none" stroke-width="300"/><path d="M442.0 219.6c-.196-1.4-.549-2.5-1.0-3.3-2-2.9-4.9-5.3-8.2-2.6 0 0 1.1-3.5 3.5-3.6 1.8-.118 6.1 1.4 9.9 7.8 0 0-2.7-.627-3.4-.039-1.2 1.0-.746 1.8-.746 1.8zm-9.6-10.3c.274-.902.7-1.7 1.2-2.0 2-1.3 6.4-.902 10.8.2 0 0-.392-1.9 2-1.8 4.2.2 10.6 2 12.6 3.9.4.5 1.0 1.2 1.4 2.3h-.078c-.98-1.3-3.7-1.2-4.4-1.2-1.0.1-1.7.0-3.1.4-.666.1-1.6.3-2.2.7-.43.3-.784 1.6-1.4 1.6-1.0 0-.98-.274-1.2-.588-.353-.431-.549-1.0-.902-1.0-1.0.1-2.8-.666-5.0-2.4s-3.0-2.1-5.9-2c-2.8.2-3.7 1.8-3.7 1.8z" stroke-width="300" class="B"/><circle r="1.1" cy="210.6" cx="448.8" class="C"/></g><path d="M454.0 985.8c140.0-107.7 128.0-265.4 128.0-265.4-3.6.7-7.2 1.1-10.9 1.1-29.3 0-99.4-16.8-115.7-38.1-17.5 19.3-89.1 38.1-118.2 38.1-3.6 0-7.3-.369-10.9-1.1 0 0-12.1 157.7 127.8 265.4z" stroke-width="300"/><path d="M570.9 731.9l-3.6.1c-26.6 0-88.4-13.6-112.2-34.1-24.9 18.9-87.8 34.1-114.0 34.1-1.2 0-2.4-.15-3.6-.371-.061 5.9.2 12.1.6 17.7 1.3 21.0 5.0 42.1 10.6 62.4 17.6 63.9 53.6 118.2 105.4 159.4 51.7-41.2 87.8-95.5 105.5-159.5 5.6-20.3 9.3-41.3 10.7-62.4.3-5.8.6-13.0.6-17.3z" fill="none" stroke-width="300"/><g clip-path="url(#A)" transform="matrix(16.0 0 0 16.0 2325.4 -2179.2)" fill-rule="evenodd" class="C"><use xlink:href="#B" class="B"/><path d="M-119.0 179.2h4.8v17.1h-4.8z"/><path d="M-114.2 179.2h4.8v17.1h-4.8z" class="B"/></g></g></svg>