<?xml version="1.0" encoding="utf-8"?><svg version="1.1" id="svg2" xmlns="http://www.w3.org/2000/svg" xmlns:xlink="http://www.w3.org/1999/xlink" x="0px" y="0px" width="220.8px" height="261.8px" viewBox="0 0 220.8 261.8" enable-background="new 0 0 220.8 261.8" xml:space="preserve"><title>Beijing 2022 Olympics</title><g><defs><path id="SVGID_1_" d="M35,78.9l8.5,10c0,0,67.8-57.9,129.7-50.3v-0.5c-0.3-0.2-9.8-3-25.6-3C122.5,35.2,81.3,42.4,35,78.9"/></defs><clipPath id="SVGID_2_"><use xlink:href="#SVGID_1_" overflow="visible"/></clipPath><g clip-path="url(#SVGID_2_)"><linearGradient id="SVGID_3_" gradientUnits="userSpaceOnUse" x1="-1237.3" y1="164.4" x2="-1233.6" y2="164.4" gradientTransform="matrix(20.6 -7.1 7.1 20.6 24443.7 -12169.9)"><stop offset="0" style="stop-color:#FFC606"/><stop offset="0.1" style="stop-color:#FDC107"/><stop offset="0.3" style="stop-color:#F6B20B"/><stop offset="0.4" style="stop-color:#EA9A12"/><stop offset="0.6" style="stop-color:#DA791B"/><stop offset="0.8" style="stop-color:#C54E26"/><stop offset="1" style="stop-color:#B22731"/></linearGradient><polygon fill="url(#SVGID_3_)" points="17.1,37.2 158.4,-11.7 191.1,82.7 49.8,131.7 "/></g></g><g><defs><path id="SVGID_4_" d="M177.2,44.5L177.2,44.5c-3.9,10.6-18.8,8.9-39,7.1c-11.1-0.9-23.8-1.9-37.1-0.8C66,53.7,35,78.9,35,78.9 l8.5,10c12-9.5,25.7-16.8,40.3-21.4c12.8-4,30.2-1.7,45.8,0.6c14.4,2.1,27.3,4.2,33.7,1.3c6.2-3.4,13-14.5,14.1-24.9L177.2,44.5" /></defs><clipPath id="SVGID_5_"><use xlink:href="#SVGID_4_" overflow="visible"/></clipPath><g clip-path="url(#SVGID_5_)"><linearGradient id="SVGID_6_" gradientUnits="userSpaceOnUse" x1="-1242.7" y1="138.7" x2="-1239.0" y2="138.7" gradientTransform="matrix(38.6 -0.2 0.2 38.6 48011.3 -5543.5)"><stop offset="0" style="stop-color:#2762A8"/><stop offset="0.1" style="stop-color:#2269AE"/><stop offset="0.2" style="stop-color:#147CBF"/><stop offset="0.4" style="stop-color:#0195D5"/><stop offset="0.4" style="stop-color:#0396D6"/><stop offset="0.6" style="stop-color:#36B0E2"/><stop offset="0.7" style="stop-color:#5EC5ED"/><stop offset="0.8" style="stop-color:#7BD4F4"/><stop offset="0.9" style="stop-color:#8DDDF8"/><stop offset="1" style="stop-color:#93E0FA"/></linearGradient><polygon fill="url(#SVGID_6_)" points="34.7,44.5 177.5,43.8 177.7,88.9 35,89.7 "/></g></g><g><defs><path id="SVGID_7_" d="M47,88.8c27.9-11,58,0.5,58,0.5l24-8.5c-10.7-4-21.9-6-33.3-6.1C78.5,74.7,61.5,79.5,47,88.8"/></defs><clipPath id="SVGID_8_"><use xlink:href="#SVGID_7_" overflow="visible"/></clipPath><g clip-path="url(#SVGID_8_)"><linearGradient id="SVGID_9_" gradientUnits="userSpaceOnUse" x1="-1304.3" y1="85.3" x2="-1300.6" y2="85.3" gradientTransform="matrix(-22.2 1.3 -1.3 -22.2 -28752.7 3750.1)"><stop offset="0" style="stop-color:#60CCF3"/><stop offset="0.1" style="stop-color:#62CCF0"/><stop offset="0.1" style="stop-color:#67CCE7"/><stop offset="0.2" style="stop-color:#6FCBD7"/><stop offset="0.3" style="stop-color:#7CCBC1"/><stop offset="0.3" style="stop-color:#8BCAA4"/><stop offset="0.4" style="stop-color:#97CA8F"/><stop offset="0.7" style="stop-color:#CCC854"/><stop offset="1" style="stop-color:#FFC61C"/></linearGradient><polygon fill="url(#SVGID_9_)" points="46.1,74.8 128.6,69.7 129.8,89.2 47.3,94.3 "/></g></g><path fill="#2BABDA" d="M70.7,100.1c27.6-19.5,58.7-19.3,58.7-19.3c-30.6,13.1-42.1,34.1-42.1,34.1L70.7,100.1"/><path fill="#2B57A0" d="M127.3,28.6c-14-1.1-28.5-0.1-38.4,0.9c-16.2,10.6-30.4,24-42,39.5C88.4,35.1,127.3,28.6,127.3,28.6"/><path fill="#C22634" d="M118,15.3c-8-1.9-16.2-2.7-24.4-2.5c-6.1,5.6-11.7,11.6-16.9,18.1c0,0,4.8-0.7,12.2-1.5 c9.9-0.9,24.4-1.9,38.4-0.9L118,15.3z"/><linearGradient id="SVGID_10_" gradientUnits="userSpaceOnUse" x1="67.4" y1="248.5" x2="111.1" y2="248.5" gradientTransform="matrix(1 0 0 -1 0 264)"><stop offset="0" style="stop-color:#2B579E"/><stop offset="1" style="stop-color:#21558F"/></linearGradient><path fill="url(#SVGID_10_)" d="M67.4,17.5l9.3,13.3c5.2-6.5,10.8-12.5,16.9-18.1c5.3-5,11.2-9.3,17.5-12.8 C111.2,0,83,4.9,67.4,17.5"/><path fill="#2B579E" d="M115.3,143.1c-35-16.6-44.6-43-44.6-43c18.5,14.8,58,28.5,58,28.5S118.4,144.6,115.3,143.1"/><g opacity="0.5"><g><defs><path id="SVGID_11_" d="M106.6,50.5c-1.8,0.1-3.7,0.2-5.5,0.3c-31.1,2.5-59.1,22.7-65,27.2L35,78.9l8.5,10l0,0 C44.2,88.4,71.3,65.4,106.6,50.5"/></defs><clipPath id="SVGID_12_"><use xlink:href="#SVGID_11_" overflow="visible"/></clipPath><g clip-path="url(#SVGID_12_)"><linearGradient id="SVGID_13_" gradientUnits="userSpaceOnUse" x1="-1221.6" y1="160.2" x2="-1217.9" y2="160.2" gradientTransform="matrix(18.9 -1.0 1.0 18.9 22974.0 -4251.2)"><stop offset="0" style="stop-color:#275AA9"/><stop offset="9.0e-02" style="stop-color:#2A61AD"/><stop offset="0.2" style="stop-color:#3174B9"/><stop offset="0.3" style="stop-color:#3D92CD"/><stop offset="0.4" style="stop-color:#45A6D9"/><stop offset="0.5" style="stop-color:#52ADDD"/><stop offset="0.6" style="stop-color:#7AC3E9"/><stop offset="0.7" style="stop-color:#97D2F2"/><stop offset="0.9" style="stop-color:#A9DCF7"/><stop offset="1" style="stop-color:#AFDFF9"/></linearGradient><polygon fill="url(#SVGID_13_)" points="32.8,50.6 106.4,46.5 108.7,88.8 35.2,92.9 "/></g></g></g><path fill="#EE334E" d="M152.1,199.8c-11,0-20.2,8.6-21,19.6c1.2,0.1,2.3,0.3,3.4,0.6c0.7-9.7,9.1-17,18.8-16.3 c9.7,0.7,17,9.1,16.3,18.8c-0.6,9.2-8.3,16.4-17.5,16.4c-0.6,0-1.3,0-1.9-0.1c-8-0.9-14.4-7.1-15.5-15c-1.2-0.4-2.4-0.6-3.6-0.8 c0.7,8.9,7,16.4,15.7,18.7c1.1,0.3,2.3,0.5,3.4,0.6c0.6,0.1,1.2,0.1,1.9,0.1c11.7,0,21.2-9.5,21.2-21.2 C173.2,209.3,163.7,199.8,152.1,199.8"/><path fill="#00A651" d="M146.8,241.6c-0.7,9.7-9.1,17-18.8,16.3s-17-9.1-16.3-18.8c0.7-9.2,8.3-16.3,17.5-16.3c0.6,0,1.3,0,1.9,0.1 c1.2,0.1,2.4,0.4,3.6,0.8c6.3,2.1,11,7.6,11.9,14.2c1.2,0.4,2.4,0.6,3.6,0.8c-0.8-8.9-7-16.4-15.7-18.7c-1.1-0.3-2.3-0.5-3.4-0.6 c-0.6-0.1-1.2-0.1-1.9-0.1c-11.7-0.1-21.3,9.3-21.4,21.1c-0.1,11.7,9.3,21.3,21.1,21.4c11.2,0.1,20.5-8.5,21.4-19.6 C149.1,242.1,147.9,241.9,146.8,241.6"/><path d="M127.5,219.4c-1-11.6-11.2-20.2-22.8-19.1s-20.2,11.2-19.1,22.8c1,10.9,10,19.2,21,19.2c0.6,0,1.2,0,1.8-0.1 c0-0.5-0.1-1.1-0.1-1.6c0-0.6,0-1.2,0.1-1.9c-0.6,0.1-1.2,0.1-1.8,0.1c-9.8,0.1-17.8-7.8-17.9-17.6c-0.1-9.8,7.8-17.8,17.6-17.9 c9.5-0.1,17.3,7.3,17.9,16.7c0,0.4,0,0.7,0,1.1c0,0.9-0.1,1.7-0.2,2.6c-1,6.7-5.6,12.2-12,14.3c-0.1,0.9-0.2,1.7-0.2,2.6 c0,0.4,0,0.7,0,1.1c8.7-2.3,15-9.8,15.7-18.7c0.1-0.6,0.1-1.2,0.1-1.9S127.5,220,127.5,219.4"/><path fill="#FCB131" d="M101.1,241.6c-0.7,9.7-9,17-18.7,16.4s-17-9-16.4-18.7c0.6-9.2,8.3-16.4,17.6-16.4c0.7,0,1.3,0,2,0.1 c1.2,0.1,2.4,0.4,3.6,0.8c6.3,2.1,10.8,7.6,11.8,14.1c1.2,0.4,2.4,0.7,3.6,0.8c-0.8-8.9-7-16.3-15.6-18.7c-1.1-0.3-2.3-0.5-3.4-0.6 c-0.7-0.1-1.3-0.1-2-0.1c-11.7-0.1-21.3,9.3-21.4,21.1c-0.1,11.7,9.3,21.3,21.1,21.4c11.2,0.1,20.5-8.5,21.3-19.6 C103.3,242.1,102.2,241.9,101.1,241.6"/><path fill="#0081C8" d="M81.7,219.4c-1-11.6-11.2-20.2-22.8-19.1s-20.2,11.2-19.1,22.8c1,10.9,10,19.2,21,19.2c0.6,0,1.2,0,1.8-0.1 c0-0.5-0.1-1.1-0.1-1.6s0-1.2,0.1-1.9c-9.7,1.1-18.5-5.9-19.6-15.7c-1.1-9.7,5.9-18.5,15.7-19.6s18.5,5.9,19.6,15.7 c0,0.3,0.1,0.6,0.1,0.9c0,0.4,0,0.7,0,1.1c0,0.9-0.1,1.7-0.2,2.6c-0.9,6.7-5.6,12.2-12,14.3c-0.1,0.9-0.2,1.7-0.2,2.6 c0,0.4,0,0.7,0,1.1c8.7-2.3,15.1-9.8,15.8-18.8c0.1-0.6,0.1-1.2,0.1-1.9S81.8,219.9,81.7,219.4"/><path d="M40.8,173.8l-1.3-3.8c-2.7-0.3-5.4-0.3-8.1,0c0.4-1.2,0.9-2.6,1.6-4.3c3.2-0.5,6.5-0.7,9.7-0.5l-1.2-3.9 c-3.7-0.3-7.3-0.3-11,0l0,0c-0.3,0-0.5,0-0.5,0.1c-2.6,5.9-4.7,12-6.4,18.3l2.8,4h1.8l0,0c5.3,0,5.8-0.2,12-0.6l-1.3-4.2 c-3.3,0.6-6.6,0.8-9.9,0.6c0.4-1.8,0.7-3.3,1-4.6C33.5,174.1,37.1,173.8,40.8,173.8"/><path d="M19,169.4c1.5-1,2.6-2.5,3.2-4.3l-1.2-3.9v0.1v-0.1C14.1,159.1,6.8,159,0,161l2.9,4.3c1.2-0.4,2.5-0.8,3.8-1.1 c-2.4,6.1-4.4,12.5-5.9,18.9c19.3,2.8,21.8-8.1,21.8-8.1l-1.3-3.8C20.8,170.4,20,169.8,19,169.4 M7.4,178.6 c0.9-3.6,2.3-8.9,4.3-14.9c2.4-0.1,4.7,0.1,7.1,0.6c-2.2,1.9-4.8,3.1-7.6,3.7l1.3,3.8c0,0,4.5,0,7.5,2 C16.9,177.9,11.4,178.6,7.4,178.6"/><path d="M53.6,161.3h-4.5c-3.2,7.2-5.7,14.7-7.5,22.4h5.5C48.7,176.1,50.9,168.6,53.6,161.3"/><path d="M68.5,161.3c-3.2,7.2-5.7,14.7-7.5,22.4h5.5c1.6-7.6,3.8-15.1,6.5-22.4H68.5z"/><path d="M90.7,161.3c-2,4.5-3.7,9.1-5.2,13.9c-1.5-4.5-2.5-9.1-3-13.9H78c-3.2,7.2-5.7,14.7-7.5,22.4H76c0,0,1-5.4,3.3-13 c0.8,4.5,2.1,8.8,3.8,13h5.5c1.6-7.6,3.8-15.1,6.5-22.4H90.7z"/><path d="M208.2,177.5c-3.4-1.1-7.1-1.4-10.7-0.9c2.7-3.1,5-6.4,7-10l-1.6-4.7c-5.3-1.1-10.8-0.4-15.6,2.1l1.6,4.7 c3.2-1.6,6.7-2.5,10.2-2.5c-1.6,2.6-5,6.8-12.4,12.2l-1.7-1.6c-2.6-0.9-5.4-1.3-8.1-1.1c2.7-3.2,5.1-6.8,7-10.6l-1.6-4.7 c-5.2-1.1-10.6-0.2-15.3,2.3l1.7,4.8c3.1-1.9,6.7-3,10.4-3.2c-1.5,2.9-5.3,7.9-14.5,14.5l-0.1,0.1l3.9,5.5 c4.9-2.8,10.4-4.3,16.1-4.3c0,0-0.1,0-0.1,0l3.7,5.6c0,0,13.3-7.9,26.4-3.5L208.2,177.5z"/><path d="M162.8,162.7l-4.8-1.5c-3.7,1.2-6.9,3.3-9.4,6.2c-3.8,4.5-3.8,8.5-2.9,11.3l-1-1c-2.6-0.9-5.4-1.3-8.2-1.2 c2.8-3.2,5.3-6.8,7.3-10.6l-1.6-4.7c-5.3-1-10.8-0.1-15.6,2.4l1.6,4.7c1.6-1,6.4-2.7,10.6-3c-1.7,2.9-5.5,7.8-14.6,14.1l-0.1,0.1 l3.4,5l0.4,0.6l0,0c0,0,8.8-5.3,19-3.9c0.5,0.8,1,1.5,1.7,2.1l5.2,1.6c3.8-0.8,7.2-3.1,9.4-6.2C170,168.5,162.8,162.8,162.8,162.7 M158.3,177.1c-1.8,2-4,3.6-6.4,4.8c-1.6-3.1-2.9-8.2,1.2-13c1.9-2,4.1-3.6,6.6-4.8C161,167.4,162.2,172.5,158.3,177.1"/><path d="M57.6,161.3c0,0-2.8,10.3-6.5,21.9c-1.3,3.9-3.1,6.3-5.3,7.1c-1.1,0.4-2.3,0.4-3.4,0.2l5.6,2.2c5.8-0.9,7.5-5.4,8.7-8.6 c1.4-3.6,6.4-22.7,6.4-22.7H57.6z"/><path d="M114.5,165.7L113,161c-14.1-0.1-20.5,9-20.1,16.8c0,0.7,0.1,1.3,0.3,2l2.1,3.2c2.3,1.5,6.2,0.8,11-2.1 c-1.2,2.2-3,4.2-5.4,4.7c0.1,0,3.9,1.9,4.7,1.5c4.5-2.3,7.6-6.8,8.1-11.8l0,0l-5-1.9l0,0l0,0c-3.2,5-9.7,6.9-11.8,5.7 C93.7,177.4,100.2,165,114.5,165.7"/><polygon points="214.7,162.4 213.5,162.4 213.5,162 216.4,162 216.4,162.4 215.2,162.4 215.2,165.9 214.7,165.9 "/><path d="M220.2,164.2c0-0.6-0.1-1.2-0.1-1.7l0,0c-0.1,0.5-0.3,1-0.5,1.5l-0.7,1.9h-0.4l-0.6-1.9c-0.2-0.6-0.3-1.1-0.5-1.5l0,0 c0,0.5,0,1.1-0.1,1.8l-0.1,1.7h-0.5l0.3-4h0.6l0.7,1.9c0.2,0.5,0.3,0.9,0.4,1.3l0,0c0.1-0.4,0.2-0.8,0.4-1.3l0.7-1.9h0.7l0.2,4h-0.5 L220.2,164.2z"/></svg>