<svg xmlns="http://www.w3.org/2000/svg" xmlns:xlink="http://www.w3.org/1999/xlink" version="1.0" width="300" height="200" viewBox="-66.5 0 900 600"><defs><clipPath id="d"><use width="300" height="200" xlink:href="#a"/></clipPath><clipPath clipPathUnits="userSpaceOnUse" id="c"><path fill="red" d="M-66.5 0H333.5V267H-66.5z"/></clipPath><path d="m 146.3,44.9 -0.6,-0.2 z m 17.8,176.4 -2.4,-1.4 -7.1,1.7 -6.2,-3.9 v 1.5 l -1.5,-2.0 1.7,-1.7 -0.2,-5.3 h 2.0 l 1.2,-3.5 1.4,-0.6 -1.1,-1.7 1.7,-0.6 -0.2,-2.6 -1.7,-0.8 2.3,-0.2 -1.4,-6.5 -3.5,-3.5 -2.1,0.8 0.8,2.9 h -7.4 l -6.2,-2.6 -2.4,-1.1 -11.8,-2.6 -0.8,1.4 -4.1,0.3 h -1.1 l -1.7,2.9 -5.0,-3.5 -2.6,0.8 0.3,2.4 -6.5,-3.5 -0.2,2.3 -6.5,-2.9 -0.3,0.2 -3.2,1.2 -0.6,-2.4 -7.7,-3.8 -8.2,-2.6 -1.5,-6.8 v -1.5 l -3.2,-5.8 1.4,-7.1 -2.6,-0.8 -0.8,-3.0 4.4,-0.5 h -2.0 l 0.2,-4.4 -6.5,2.0 -0.2,-1.7 -0.8,3.2 -3.5,1.4 -2.4,-2.3 -0.8,-2.4 -0.8,-4.7 2.0,-1.5 0.8,1.1 0.6,-1.4 -1.5,-10.6 2.4,0.5 1.1,-11.2 0.3,-0.3 2.3,-1.4 -2.9,0.2 -1.1,-2.6 5.3,-5.9 -4.8,-0.8 -3.5,3.5 -1.4,-4.0 -2.1,2.9 -0.5,-2.0 -2.6,0.8 -1.7,0.8 1.4,-5.3 -1.1,-0.6 0.6,-1.5 -1.5,0.3 -0.2,-3.0 h 5.6 l -0.2,-1.4 h -1.7 l -3.2,-5.7 -1.7,0.6 -1.1,-2.0 -0.6,1.7 -1.7,-1.2 1.7,-1.1 -2.6,-0.8 0.6,-1.5 -2.1,-1.1 -0.5,-4.7 -2.1,-0.6 1.2,-0.8 -2.4,-6.2 0.2,-2.0 0.8,-6.2 h 1.7 l -0.5,3.8 4.4,6.2 3.2,4.1 6.5,1.7 v 0.2 l 0.8,-1.5 3.5,4.1 1.7,2.0 0.8,0.8 10.0,4.8 1.7,0.8 0.6,0.5 4.7,5.7 2.6,-1.2 19.6,-4.4 0.6,-3.5 1.4,0.6 -0.2,-1.1 0.8,-0.6 4.1,-1.5 V 87.1 l 1.4,-1.5 1.7,-6.8 -0.8,-2.6 4.1,-10.0 V 64.5 59.8 h 2.0 l 2.4,-3.5 2.9,-0.8 0.3,-3.2 4.1,-4.9 1.7,0.8 8.3,-3.0 0.8,-0.8 1.7,-1.7 -0.6,-2.9 h 1.7 l 0.8,4.7 9.1,2.1 1.5,-1.5 0.6,0.2 8.0,1.7 0.2,-0.2 4.1,-2.4 0.2,2.6 3.5,0.3 2.9,2.3 0.6,0.6 4.4,3.8 5.3,0.3 3.2,0.5 4.1,-1.4 0.3,2.6 1.7,1.1 1.4,-2.6 h 1.7 l 1.2,6.8 1.4,0.2 -0.2,2.4 -0.2,0.2 h 0.5 l 3.5,-1.7 3.2,-1.1 9.1,3.2 1.7,-0.5 0.6,3.2 2.4,0.3 -0.6,-1.5 h 2.0 l 0.6,3.2 2.4,-2.6 5.6,3.5 1.5,6.5 -2.4,0.6 0.6,4.9 0.8,1.5 6.2,15.7 -3.2,2.9 -0.2,3.5 -2.6,3.2 2.9,2.0 -1.1,0.8 2.6,2.6 4.1,0.6 1.2,1.7 1.1,2.3 2.9,1.2 3.5,-2.4 2.4,0.2 -2.9,4.1 2.9,7.7 -3.5,2.9 1.5,4.7 -0.8,4.1 1.7,2.4 4.7,0.8 -4.7,6.5 0.8,1.1 1.1,1.2 -2.0,3.2 2.0,1.2 -10.4,8.5 2.4,5.9 -0.6,3.5 -3.5,1.1 -0.8,3.0 -4.1,1.7 -1.2,3.8 -0.8,2.0 4.1,2.1 -6.2,0.5 1.5,3.2 -3.0,2.9 -4.7,0.8 -1.5,2.6 3.5,1.7 -6.7,6.2 2.0,3.2 -5.3,-1.1 -5.9,3.5 -8.0,3.8 -1.7,2.6 -1.1,-0.8 1.1,-2.6 -5.3,2.0 -1.1,-2.0 -8.0,4.7 -3.5,-1.1 -6.5,1.1 -1.7,-0.8 m 0.2,-172.2 -0.6,-0.6 H 165.3 v 0.3 h 0.6 l 0.2,0.2 v 0 z m -2.0,171.3 1.7,0.8 z m 0,0 1.7,0.8 M 39.0,98.7 l 0.3,-2.1 -3.2,-2.0 2.9,4.1 h -3e-6 z M 31.9,82.3 h -1.7 l 0.8,2.6 0.8,-2.3 v -0.3 0 z m -0.8,-2.6 -0.8,0.8 1.7,1.2 z m 8.0,19.0 0.3,-2.1 -3.2,-2.0 2.9,4.1 v 0 z m -7.1,-16.3 h -1.7 l 0.8,2.6 0.8,-2.3 v -0.3 0 z m -0.8,-2.6 -0.8,0.8 1.7,1.2 z m 8.0,19.0 0.3,-2.1 -3.2,-2.0 2.9,4.1 h -3e-6 z M 31.9,82.3 h -1.7 l 0.8,2.6 0.8,-2.3 v -0.3 0 z m -0.8,-2.6 -0.8,0.8 1.7,1.2 z m 5.3,-6.2 v -2.3 l -2.0,0.5 0.2,1.5 z m -2.3,-6.5 0.5,1.1 1.2,-2.6 -1.7,1.2 z m 2.3,6.5 v -2.3 l -2.0,0.5 0.2,1.5 z m -2.3,-6.5 0.5,1.1 1.2,-2.6 -1.7,1.2 z m 2.3,6.5 v -2.3 l -2.0,0.5 0.2,1.5 z m -2.3,-6.5 0.5,1.1 1.2,-2.6 -1.7,1.2 z m 31.7,90.8 -2.0,0.2 -1.7,2.4 2.9,-0.6 0.8,-2.0 v 0 z m 0,0 -2.0,0.2 -1.7,2.4 2.9,-0.6 0.8,-2.0 v 0 z m 0,0 -2.0,0.2 -1.7,2.4 2.9,-0.6 0.8,-2.0 v 0 z m 2.1,-60.3 -0.6,-0.5 -1.7,-0.8 1.7,0.8 z" transform="translate(0,-1.5)" id="a" fill="#fff"/><g id="e" fill="none"><circle cx="133.5" cy="133.5" r="49.5"/><circle cx="133.5" cy="133.5" r="92.5"/><circle cx="133.5" cy="133.5" r="133"/><path d="M -100,133.5 H 367 M 133.5,-100 v 467" id="b"/><use transform="rotate(30,133.5,133.5)" width="300" height="200" xlink:href="#b"/><use transform="rotate(60,133.5,133.5)" width="300" height="200" xlink:href="#b"/></g></defs><g clip-path="url(#c)" transform="matrix(2.2,0,0,2.2,83.1,-0.7)"><path fill="#072b5f" d="M-66.5 0.3H333.5V267H-66.5z"/><g fill="none" stroke="#fff" stroke-width="300"><circle r="49.5" cy="133.5" cx="133.5"/><circle r="92.0" cy="133.6" cx="133.5" stroke-width="300"/><circle r="132.1" cy="133.6" cx="133.5" stroke-width="300"/><path d="M -100,133.5 H 367 M 133.5,-100 v 467"/><use xlink:href="#b" height="200" width="300" transform="rotate(30,133.5,133.5)"/><use xlink:href="#b" height="200" width="300" transform="rotate(60,133.5,133.5)"/></g><use width="300" height="200" xlink:href="#a" transform="matrix(1,0,0,0.9,0,0.3)"/><use clip-path="url(#d)" width="300" height="200" xlink:href="#e" transform="matrix(0.9,0,0,0.9,0.1,0.6)" stroke="#072b5f" stroke-width="300"/></g></svg>