<svg xmlns="http://www.w3.org/2000/svg" width="300" height="169" viewBox="0 0 300 169" role="img" aria-label="Classic literature journey">
<defs>
<linearGradient id="bg" x1="0" y1="0" x2="1" y2="1">
<stop offset="0%" stop-color="#403d39"/>
<stop offset="100%" stop-color="#6c584c"/>
</linearGradient>
</defs>
<rect width="300" height="169" rx="22" fill="url(#bg)"/>
<circle cx="34" cy="30" r="42" fill="#ffffff10"/>
<circle cx="272" cy="144" r="54" fill="#ffffff10"/>
<rect x="20" y="20" width="260" height="129" rx="18" fill="#ffffff10" stroke="#ffffff22"/>
<rect x="72" y="56" width="78" height="60" rx="6" fill="#f8f4e3"/>
<path d="M111 56 v60" stroke="#d4c2a8" stroke-width="3"/>
<path d="M83 71 h22 M83 82 h18 M117 71 h22 M117 82 h18" stroke="#b08968" stroke-width="3" stroke-linecap="round"/>
<path d="M178 107 q16 -25 38 -10 q-15 -1 -18 17 q-10 -10 -20 -7z" fill="#9ad1d4"/>
<path d="M190 73 l12 18 h-24z" fill="#fefae0" stroke="#ffffff77"/>
<path d="M214 90 l0 26" stroke="#fefae0" stroke-width="3"/>
<path d="M72 126 q52 -16 104 0" fill="none" stroke="#ffffff35" stroke-width="4" stroke-linecap="round"/>
</svg>