<svg xmlns="http://www.w3.org/2000/svg" width="300" height="169" viewBox="0 0 300 169" role="img" aria-label="Cloud infrastructure">
<defs>
<linearGradient id="bg" x1="0" y1="0" x2="1" y2="1">
<stop offset="0%" stop-color="#0b1f33"/>
<stop offset="100%" stop-color="#144552"/>
</linearGradient>
</defs>
<rect width="300" height="169" rx="22" fill="url(#bg)"/>
<circle cx="34" cy="30" r="42" fill="#ffffff10"/>
<circle cx="272" cy="144" r="54" fill="#ffffff10"/>
<rect x="20" y="20" width="260" height="129" rx="18" fill="#ffffff10" stroke="#ffffff22"/>
<path d="M97 96 h102 a20 20 0 0 0 0 -40 q-6 -22 -31 -22 q-20 0 -30 16 q-8 -7 -19 -7 q-26 0 -30 27 q-18 3 -18 18 q0 8 6 14 q6 6 20 6z" fill="#caf0f8" fill-opacity="0.9"/>
<rect x="83" y="104" width="56" height="20" rx="6" fill="#1d3557" stroke="#8ecae6"/>
<rect x="161" y="104" width="56" height="20" rx="6" fill="#1d3557" stroke="#8ecae6"/>
<circle cx="95" cy="114" r="3" fill="#90e0ef"/>
<circle cx="173" cy="114" r="3" fill="#90e0ef"/>
<path d="M150 96 v28" stroke="#ffffff77" stroke-width="4" stroke-linecap="round"/>
</svg>