<svg xmlns="http://www.w3.org/2000/svg" width="300" height="169" viewBox="0 0 300 169" role="img" aria-label="Digital storage hardware">
<defs>
<linearGradient id="bg" x1="0" y1="0" x2="1" y2="1">
<stop offset="0%" stop-color="#102a43"/>
<stop offset="100%" stop-color="#243b53"/>
</linearGradient>
</defs>
<rect width="300" height="169" rx="22" fill="url(#bg)"/>
<circle cx="34" cy="30" r="42" fill="#ffffff10"/>
<circle cx="272" cy="144" r="54" fill="#ffffff10"/>
<rect x="20" y="20" width="260" height="129" rx="18" fill="#ffffff10" stroke="#ffffff22"/>
<rect x="72" y="48" width="156" height="76" rx="12" fill="#0b132b" stroke="#8ecae6" stroke-width="4"/>
<rect x="94" y="66" width="48" height="40" rx="6" fill="#1d3557" stroke="#caf0f8"/>
<path d="M164 64 h42 M164 78 h42 M164 92 h42 M164 106 h28" stroke="#90e0ef" stroke-width="4" stroke-linecap="round"/>
<path d="M82 48 v-10 M104 48 v-10 M126 48 v-10 M148 48 v-10 M170 48 v-10 M192 48 v-10 M214 48 v-10" stroke="#ffd166" stroke-width="4" stroke-linecap="round"/>
<path d="M82 124 v10 M104 124 v10 M126 124 v10 M148 124 v10 M170 124 v10 M192 124 v10 M214 124 v10" stroke="#ffd166" stroke-width="4" stroke-linecap="round"/>
</svg>